<?xml version="1.0" encoding="UTF-8"?>
<svg version="1.1" xmlns="http://www.w3.org/2000/svg" width="512" height="512">
<path d="M0 0 C2.52086788 0.05355191 5.04191545 0.09917682 7.56306458 0.13725281 C13.50635362 0.24651227 19.44350409 0.43675824 25.38302165 0.66671675 C32.7802917 0.9477891 40.17929174 1.09677999 47.58007812 1.25195312 C57.41241723 1.47436863 67.24230417 1.73499607 77.07104492 2.08325195 C78.60095566 2.13430336 78.60095566 2.13430336 80.16177368 2.18638611 C95.33907814 2.75577227 95.33907814 2.75577227 97.92041016 5.02636719 C98.23413574 5.65575195 98.54786133 6.28513672 98.87109375 6.93359375 C99.2568457 7.65740234 99.64259766 8.38121094 100.04003906 9.12695312 C100.44577148 9.93455078 100.85150391 10.74214844 101.26953125 11.57421875 C102.2919277 13.37465689 103.32095116 15.17134288 104.35546875 16.96484375 C105.45357785 18.91698261 106.54988069 20.87013843 107.64453125 22.82421875 C111.74460275 30.12321528 115.87246073 37.39263689 120.1953125 44.5625 C121.26953125 46.57421875 121.26953125 46.57421875 121.26953125 48.57421875 C81.00953125 48.57421875 40.74953125 48.57421875 -0.73046875 48.57421875 C-3.37046875 53.19421875 -6.01046875 57.81421875 -8.73046875 62.57421875 C-11.32560919 66.975806 -13.92716788 71.37249356 -16.54296875 75.76171875 C-21.24647096 83.65500722 -25.90006752 91.57385476 -30.4987793 99.52856445 C-31.00405907 100.40197731 -31.50933884 101.27539017 -32.02993011 102.17527008 C-33.26373383 104.30808498 -34.49724041 106.44107112 -35.73046875 108.57421875 C-34.74778172 108.56332498 -33.7650947 108.5524312 -32.75262928 108.54120731 C-8.80547723 108.28102514 15.13959497 108.15382523 39.08819866 108.16484165 C50.67021488 108.16711294 62.24910298 108.12669673 73.83032227 107.98461914 C83.92880684 107.86084122 94.02386386 107.81834646 104.12302047 107.87211746 C109.46873536 107.89777555 114.80746997 107.88364995 120.1522274 107.7720356 C152.67041304 107.1313063 152.67041304 107.1313063 160.30404663 112.84586525 C164.95289239 118.23842378 167.43717116 124.11194702 169.42708397 130.88917923 C170.56866447 134.52761316 172.26642364 137.41147188 174.27734375 140.640625 C174.8084375 141.57712891 175.33953125 142.51363281 175.88671875 143.47851562 C176.92993442 145.31765621 177.97427975 147.15615631 179.01953125 148.99414062 C179.79683594 150.36602539 179.79683594 150.36602539 180.58984375 151.765625 C181.03602051 152.55138916 181.48219727 153.33715332 181.94189453 154.14672852 C183.45904201 156.92072583 184.8701334 159.73927152 186.26953125 162.57421875 C164.35820457 162.6867799 142.44906603 162.64884216 120.5390625 162.38671875 C119.757749 162.37744354 118.97643551 162.36816833 118.17144585 162.35861206 C109.7915947 162.25818561 101.41195075 162.14812318 93.03246975 162.02038574 C88.51257477 161.95189611 83.99263257 161.88709698 79.47265625 161.82421875 C78.5441794 161.8112677 77.61570255 161.79831665 76.65909004 161.78497314 C62.10964666 161.58947744 47.56447337 161.56671434 33.01391602 161.61439514 C24.00212093 161.64366948 14.99040559 161.64004174 5.97857666 161.63041592 C-0.37307195 161.62624577 -6.72353991 161.64147441 -13.07495117 161.69900513 C-19.0809988 161.75339037 -25.08538545 161.76158044 -31.09160614 161.73579407 C-33.31947811 161.73485684 -35.54743361 161.75134719 -37.77503204 161.78627014 C-54.77472767 162.03992147 -54.77472767 162.03992147 -59.54400635 158.46565247 C-61.39690848 155.8892675 -62.59618552 153.52818665 -63.73046875 150.57421875 C-64.32891602 149.57205322 -64.92736328 148.5698877 -65.54394531 147.53735352 C-65.9819043 146.70518311 -66.41986328 145.8730127 -66.87109375 145.015625 C-67.37954834 144.06147705 -67.88800293 143.1073291 -68.41186523 142.12426758 C-68.92950439 141.13837646 -69.44714355 140.15248535 -69.98046875 139.13671875 C-73.22969824 133.00288651 -76.4830955 126.89993467 -80.0859375 120.96484375 C-80.60575195 120.10431396 -81.12556641 119.24378418 -81.66113281 118.35717773 C-82.64399844 116.74576859 -83.64145682 115.14314352 -84.65527344 113.55102539 C-85.09129883 112.83293701 -85.52732422 112.11484863 -85.9765625 111.375 C-86.36513428 110.75794189 -86.75370605 110.14088379 -87.15405273 109.50512695 C-88.0076724 106.64562761 -87.04061262 105.1957583 -85.73046875 102.57421875 C-84.86706626 100.98841835 -83.96924025 99.42101242 -83.04296875 97.87109375 C-82.51421143 96.98188232 -81.9854541 96.0926709 -81.44067383 95.17651367 C-80.87630615 94.23525635 -80.31193848 93.29399902 -79.73046875 92.32421875 C-78.54671651 90.33603186 -77.36312431 88.34774967 -76.1796875 86.359375 C-75.59364746 85.37727051 -75.00760742 84.39516602 -74.40380859 83.38330078 C-72.10153122 79.51840387 -69.82037647 75.64130439 -67.54296875 71.76171875 C-66.7292079 70.37757992 -65.91540618 68.99346512 -65.1015625 67.609375 C-63.55139921 64.9717554 -62.00207334 62.33364572 -60.453125 59.6953125 C-55.58872585 51.4127422 -50.70915194 43.13910143 -45.81890869 34.87176514 C-44.83789687 33.21270017 -43.8581275 31.55290073 -42.87841797 29.89306641 C-41.60536141 27.74246287 -40.30652048 25.60689434 -38.98120117 23.48809814 C-37.31749123 20.7350433 -36.03292796 17.97778111 -34.81643677 15.00198364 C-27.3902371 -1.68418381 -16.73394906 -0.78834664 0 0 Z " fill="#0B79C2" transform="translate(206.73046875,121.42578125)"/>
<path d="M0 0 C0.82685303 0.00410889 1.65370605 0.00821777 2.50561523 0.01245117 C3.45895752 0.01374023 4.4122998 0.0150293 5.39453125 0.01635742 C6.96352173 0.03569336 6.96352173 0.03569336 8.56420898 0.05541992 C10.1844397 0.06508789 10.1844397 0.06508789 11.83740234 0.07495117 C26.56330837 0.20730957 41.28501159 0.72975306 56.00170898 1.24291992 C54.83461393 5.01039058 53.55560931 8.31290134 51.49780273 11.67651367 C50.75626953 12.89951172 50.75626953 12.89951172 49.99975586 14.1472168 C49.48477539 14.98317383 48.96979492 15.81913086 48.43920898 16.68041992 C47.43773573 18.32484694 46.43643895 19.96938144 45.43530273 21.61401367 C44.9345372 22.43252304 44.43377167 23.25103241 43.91783142 24.09434509 C41.69197742 27.75187122 39.48805013 31.42217502 37.28710938 35.09472656 C36.87334297 35.78476021 36.45957657 36.47479385 36.03327179 37.18573761 C35.02256054 38.87135095 34.01210807 40.55711945 33.00170898 42.24291992 C33.57762818 42.24715186 34.15354738 42.2513838 34.74691868 42.25574398 C48.77770215 42.35916965 62.80843703 42.4678249 76.83913517 42.58225918 C83.62434784 42.63747398 90.40956577 42.69093624 97.19482422 42.74023438 C103.74358756 42.78781923 110.29230059 42.8403388 116.84100151 42.89586067 C119.33880778 42.91623264 121.83662808 42.9349541 124.3344593 42.95199394 C127.83435251 42.97615228 131.33414974 43.0061911 134.83398438 43.03759766 C136.38118416 43.04623085 136.38118416 43.04623085 137.9596405 43.05503845 C143.07492044 43.10717443 147.95944938 43.36625711 153.00170898 44.24291992 C151.34649405 48.68116782 149.25808871 52.73824568 146.6739502 56.71327209 C144.09182709 60.81788173 142.58977497 64.53174194 141.39135742 69.23754883 C139.08006413 76.54915539 136.0554167 83.47022605 129.00170898 87.24291992 C113.26238582 92.08544908 94.52616525 89.62499095 78.32818604 88.94915771 C71.98543875 88.71089874 65.64069601 88.61363184 59.29467773 88.50268555 C47.05528232 88.26308834 34.82494013 87.91162239 22.5956192 87.35577774 C20.22459334 87.25261734 17.85387966 87.17160499 15.48187256 87.0953064 C14.22545959 87.0388797 12.96904663 86.982453 11.67456055 86.92431641 C10.12070648 86.86473 10.12070648 86.86473 8.53546143 86.80393982 C5.36466353 86.10186622 4.39259031 84.99752162 2.51733398 82.39916992 C1.63643886 80.70173731 0.79982362 78.98081138 0.00170898 77.24291992 C-1.01769826 75.39549349 -2.04401667 73.55186751 -3.07641602 71.71166992 C-4.13785886 69.72429814 -5.19502149 67.73463547 -6.24829102 65.74291992 C-11.00139601 56.80101995 -11.00139601 56.80101995 -16.13500977 48.07495117 C-16.60970703 47.3040918 -17.0844043 46.53323242 -17.57348633 45.73901367 C-18.45945397 44.31892504 -19.3604593 42.90807103 -20.27856445 41.50854492 C-21.46313477 39.60620117 -21.46313477 39.60620117 -22.99829102 36.24291992 C-21.76600214 31.99630472 -19.38956912 28.27018712 -17.15454102 24.48120117 C-16.78478149 23.84933395 -16.41502197 23.21746674 -16.03405762 22.56645203 C-15.25575865 21.2384594 -14.47573844 19.9114742 -13.6940918 18.58544922 C-12.49757744 16.55420853 -11.30813593 14.51894586 -10.11938477 12.4831543 C-9.36068862 11.19059089 -8.60158802 9.89826477 -7.84204102 8.60620117 C-7.48678345 7.99786942 -7.13152588 7.38953766 -6.76550293 6.76277161 C-2.98011185 0.36227383 -2.98011185 0.36227383 0 0 Z " fill="#0066AF" transform="translate(202.998291015625,300.757080078125)"/>
<path d="M0 0 C2.51428405 0.22208717 4.88928623 0.59064615 7.375 1.0625 C4.05257305 5.06645043 0.64265814 8.84559745 -3.0625 12.5 C-5.82821229 15.22889749 -8.47914873 17.98139384 -11 20.9375 C-13.92423175 24.35365858 -17.05101163 27.53103016 -20.25 30.6875 C-23.94039884 34.33728923 -27.4243363 37.97889458 -30.625 42.0625 C-30.955 41.4025 -31.285 40.7425 -31.625 40.0625 C-30.70385742 38.08569336 -30.70385742 38.08569336 -29.23046875 35.65234375 C-28.69252686 34.75209473 -28.15458496 33.8518457 -27.6003418 32.92431641 C-26.3984822 30.95847259 -25.19550145 28.99331381 -23.99145508 27.02880859 C-21.14988654 22.36934687 -18.40922469 17.77030881 -16.09375 12.82421875 C-9.73309137 -0.36905749 -9.73309137 -0.36905749 0 0 Z " fill="#003780" transform="translate(242.625,342.9375)"/>
</svg>
